<svg width="288" height="96" viewBox="0 0 288 96" fill="none" xmlns="http://www.w3.org/2000/svg">
<path d="M288 48L231.056 50.1994C229.822 50.247 229.753 52.0508 230.98 52.1921L284.853 58.3956L226.803 56.4005C225.577 56.3583 225.368 58.1354 226.57 58.3799L275.551 68.3368L218.561 62.0396C217.359 61.9068 216.997 63.6223 218.149 63.9869L260.498 77.3893L206.959 66.8058C205.808 66.5784 205.273 68.1759 206.329 68.687L228.475 79.407C229.588 79.9456 228.926 81.6274 227.745 81.2626L192.854 70.4867C191.797 70.1601 191.071 71.5384 191.938 72.2258L209.199 85.9094C210.13 86.6478 209.226 88.1046 208.151 87.5974L177.236 73.0096C176.344 72.5887 175.446 73.5766 175.949 74.4247L185.846 91.0864C186.408 92.0331 185.251 93.0607 184.377 92.3904L161.053 74.4929C160.401 73.993 159.458 74.4478 159.444 75.2688L159.111 94.3752C159.093 95.3686 157.795 95.7315 157.265 94.891L144.846 75.1919C144.454 74.5696 143.546 74.5696 143.154 75.1919L130.735 94.891C130.205 95.7315 128.907 95.3686 128.889 94.3752L128.556 75.2688C128.542 74.4478 127.599 73.9931 126.947 74.4929L103.623 92.3904C102.749 93.0607 101.592 92.0331 102.154 91.0864L112.051 74.4247C112.554 73.5766 111.656 72.5887 110.764 73.0096L79.8493 87.5974C78.7744 88.1046 77.8699 86.6478 78.8013 85.9094L96.0619 72.2258C96.929 71.5384 96.2029 70.1601 95.1456 70.4867L60.2554 81.2626C59.0743 81.6274 58.4119 79.9456 59.5246 79.407L81.6711 68.6869C82.7269 68.1759 82.1922 66.5784 81.0415 66.8058L27.5016 77.3893L69.851 63.9869C71.003 63.6223 70.6405 61.9068 69.4394 62.0396L12.4495 68.3368L61.4301 58.3799C62.6324 58.1354 62.4227 56.3583 61.1966 56.4005L3.14673 58.3956L57.0202 52.1921C58.247 52.0508 58.1784 50.247 56.9444 50.1994L-2.18557e-06 48L56.9444 45.8006C58.1784 45.753 58.247 43.9492 57.0202 43.8079L3.14673 37.6044L61.1965 39.5995C62.4227 39.6417 62.6324 37.8646 61.4301 37.6201L12.4495 27.6632L69.4394 33.9604C70.6405 34.0932 71.0031 32.3777 69.851 32.0131L27.5016 18.6107L81.0415 29.1942C82.1922 29.4216 82.7269 27.8241 81.6711 27.313L59.5246 16.593C58.4119 16.0544 59.0743 14.3726 60.2554 14.7374L95.1456 25.5133C96.2029 25.8399 96.929 24.4616 96.0619 23.7742L78.8013 10.0906C77.8699 9.35222 78.7744 7.89537 79.8493 8.40257L110.764 22.9904C111.656 23.4113 112.554 22.4234 112.051 21.5753L102.154 4.91364C101.592 3.96689 102.749 2.93928 103.623 3.60962L126.947 21.5071C127.599 22.007 128.542 21.5522 128.556 20.7312L128.889 1.62482C128.907 0.631389 130.205 0.268472 130.735 1.10897L143.154 20.8082C143.546 21.4304 144.454 21.4304 144.846 20.8082L157.265 1.10897C157.795 0.268475 159.093 0.63139 159.111 1.62482L159.444 20.7312C159.458 21.5522 160.401 22.007 161.053 21.5071L184.377 3.60962C185.251 2.93928 186.408 3.96689 185.846 4.91364L175.949 21.5753C175.446 22.4234 176.344 23.4113 177.236 22.9904L208.151 8.40257C209.226 7.89537 210.13 9.35222 209.199 10.0906L191.938 23.7742C191.071 24.4616 191.797 25.8399 192.854 25.5133L227.745 14.7374C228.926 14.3727 229.588 16.0544 228.475 16.593L206.329 27.3131C205.273 27.8241 205.808 29.4216 206.958 29.1942L260.498 18.6107L218.149 32.0131C216.997 32.3777 217.359 34.0932 218.561 33.9604L275.551 27.6632L226.57 37.6202C225.368 37.8646 225.577 39.6417 226.803 39.5995L284.853 37.6044L230.98 43.808C229.753 43.9492 229.822 45.753 231.056 45.8006L288 48Z" fill="black"/>
</svg>
