<svg width="32" height="32" viewBox="0 0 32 32" fill="none" xmlns="http://www.w3.org/2000/svg">
<path d="M26.6812 7.9825C25.4562 5.73625 23.7938 4.5 22 4.5C20.2062 4.5 18.5438 5.73625 17.3188 7.9825C16.7227 9.10386 16.2792 10.2999 16 11.5387C15.7208 10.2999 15.2773 9.10386 14.6812 7.9825C13.4562 5.73625 11.7938 4.5 10 4.5C8.20625 4.5 6.54375 5.73625 5.31875 7.9825C4.14625 10.1325 3.5 12.98 3.5 16C3.5 19.02 4.14625 21.8675 5.31875 24.0175C6.54375 26.2637 8.20625 27.5 10 27.5C11.7938 27.5 13.4562 26.2637 14.6812 24.0175C15.2773 22.8961 15.7208 21.7001 16 20.4613C16.2792 21.7001 16.7227 22.8961 17.3188 24.0175C18.5438 26.2675 20.2062 27.5 22 27.5C23.7938 27.5 25.4562 26.2637 26.6812 24.0175C27.8537 21.8675 28.5 19.0175 28.5 16C28.5 12.9825 27.8537 10.1325 26.6812 7.9825ZM13.8062 23.5387C12.7625 25.4487 11.4112 26.5 10 26.5C8.58875 26.5 7.2375 25.4487 6.19625 23.5387C5.44625 22.1637 4.925 20.465 4.67375 18.6112C5.17759 19.0609 5.80077 19.3552 6.46813 19.4587C7.13549 19.5621 7.81853 19.4703 8.43486 19.1943C9.0512 18.9182 9.57453 18.4698 9.94172 17.903C10.3089 17.3362 10.5043 16.6753 10.5043 16C10.5043 15.3247 10.3089 14.6638 9.94172 14.097C9.57453 13.5302 9.0512 13.0818 8.43486 12.8057C7.81853 12.5297 7.13549 12.4379 6.46813 12.5413C5.80077 12.6448 5.17759 12.9391 4.67375 13.3888C4.92375 11.535 5.445 9.84 6.19625 8.46125C7.2375 6.55125 8.58875 5.5 10 5.5C11.4112 5.5 12.7625 6.55125 13.8038 8.46125C14.8975 10.4663 15.5 13.1437 15.5 16C15.5 18.8563 14.8975 21.5337 13.8038 23.5387H13.8062ZM4.5 16C4.5 15.5055 4.64662 15.0222 4.92133 14.6111C5.19603 14.2 5.58648 13.8795 6.04329 13.6903C6.50011 13.5011 7.00277 13.4516 7.48773 13.548C7.97268 13.6445 8.41814 13.8826 8.76777 14.2322C9.1174 14.5819 9.3555 15.0273 9.45196 15.5123C9.54843 15.9972 9.49892 16.4999 9.3097 16.9567C9.12048 17.4135 8.80005 17.804 8.38893 18.0787C7.9778 18.3534 7.49445 18.5 7 18.5C6.33696 18.5 5.70107 18.2366 5.23223 17.7678C4.76339 17.2989 4.5 16.663 4.5 16ZM25.8037 23.5387C24.7625 25.4487 23.4112 26.5 22 26.5C20.5888 26.5 19.2375 25.4487 18.1963 23.5387C17.4463 22.1637 16.925 20.465 16.6737 18.6112C17.1776 19.0609 17.8008 19.3552 18.4681 19.4587C19.1355 19.5621 19.8185 19.4703 20.4349 19.1943C21.0512 18.9182 21.5745 18.4698 21.9417 17.903C22.3089 17.3362 22.5043 16.6753 22.5043 16C22.5043 15.3247 22.3089 14.6638 21.9417 14.097C21.5745 13.5302 21.0512 13.0818 20.4349 12.8057C19.8185 12.5297 19.1355 12.4379 18.4681 12.5413C17.8008 12.6448 17.1776 12.9391 16.6737 13.3888C16.9237 11.535 17.445 9.84 18.1963 8.46125C19.2375 6.55125 20.5888 5.5 22 5.5C23.4112 5.5 24.7625 6.55125 25.8037 8.46125C26.8975 10.4663 27.5 13.1437 27.5 16C27.5 18.8563 26.8975 21.5337 25.8037 23.5387ZM16.5 16C16.5 15.5055 16.6466 15.0222 16.9213 14.6111C17.196 14.2 17.5865 13.8795 18.0433 13.6903C18.5001 13.5011 19.0028 13.4516 19.4877 13.548C19.9727 13.6445 20.4181 13.8826 20.7678 14.2322C21.1174 14.5819 21.3555 15.0273 21.452 15.5123C21.5484 15.9972 21.4989 16.4999 21.3097 16.9567C21.1205 17.4135 20.8 17.804 20.3889 18.0787C19.9778 18.3534 19.4945 18.5 19 18.5C18.337 18.5 17.7011 18.2366 17.2322 17.7678C16.7634 17.2989 16.5 16.663 16.5 16Z" fill="#02020F"/>
</svg>
