<svg width="188" height="63" viewBox="0 0 188 63" fill="none" xmlns="http://www.w3.org/2000/svg">
<g clip-path="url(#clip0_775_12914)">
<path d="M223.996 30.8872H47.0395C57.4495 19.9702 63.2095 10.0438 60.4078 6.92103C57.4886 3.66903 46.2055 8.8554 33.6262 18.7955V0H32.4065V19.7626C30.5485 21.2643 28.667 22.8658 26.7855 24.5535C24.436 26.666 22.2158 28.7903 20.162 30.8872H0V32.1089H18.9912C8.58325 43.0161 2.82127 52.9503 5.62297 56.0731C8.54214 59.3271 19.8175 54.1387 32.4065 44.2046V63H33.6262V43.2315C35.4823 41.7298 37.3638 40.1302 39.2453 38.4406C41.5947 36.33 43.8169 34.2038 45.8687 32.1069H224L223.996 30.8872ZM55.5425 11.2871C58.0877 14.1279 54.0095 22.1551 46.088 30.8872H38.4524C35.8543 30.1667 34.3409 28.6611 33.6282 26.063V19.6119C43.7327 11.9625 52.8622 8.30524 55.5425 11.2871ZM27.1535 24.9608C28.9156 23.3945 30.6777 21.9124 32.4084 20.5517V26.5603C31.637 28.8549 30.1628 30.2137 27.735 30.8872H21.0783C22.9226 28.9195 24.9588 26.9284 27.1516 24.9608H27.1535ZM10.4883 51.7071C7.94303 48.8662 12.0213 40.839 19.9428 32.1069H28.2304C30.3644 32.8235 31.688 34.149 32.4065 36.2831V43.3823C22.2981 51.0316 13.1646 54.6889 10.4883 51.7071ZM38.8772 38.0334C37.1151 39.5997 35.3531 41.0818 33.6243 42.4425V36.7803C34.2978 34.3526 35.6565 32.8783 37.9511 32.1069H44.9583C43.1081 34.0668 41.072 36.0657 38.8792 38.0334H38.8772Z" fill="#8D8D8D"/>
<path d="M70.0169 17.0121H68.666V12.9843H70.0169V11.6334H71.3429V10.2824H79.4485V11.6334H80.7744V12.9843H82.1253V15.6862H79.4234V14.3352H78.0975V12.9843H72.6938V14.3352H71.3429V15.6612H72.6938V17.0121H79.4485V18.363H80.7744V19.714H82.1253V25.0927H80.7744V26.4436H79.4485V27.7945H71.3429V26.4436H70.0169V25.0927H68.666V22.4158H71.3429V23.7417H72.6938V25.0927H78.0975V23.7417H79.4485V21.0649H78.1226V19.714H71.3429V18.363H70.0169V17.0121Z" fill="#8D8D8D"/>
<path d="M82.1519 10.2824H95.5862V12.9843H90.2325V27.7945H87.5306V12.9843H82.1519V10.2824Z" fill="#8D8D8D"/>
<path d="M96.9371 18.363V21.0649H102.316V18.363H100.965V14.3352H98.288V18.363H96.9371ZM94.2352 25.0927V27.7945H91.5334V23.7417H92.8843V21.0649H94.2352V18.363H95.5862V14.3352H96.9371V11.6334H98.288V10.2824H100.99V11.6334H102.316V14.3352H103.667V18.363H105.018V21.0649H106.369V23.7417H107.72V27.7945H105.018V25.0927H103.667V23.7668H95.5862V25.0927H94.2352Z" fill="#8D8D8D"/>
<path d="M111.777 12.9843V18.363H118.481V17.0121H119.832V14.3352H118.481V12.9843H111.777ZM109.075 10.2824H119.832V11.6334H121.183V12.9843H122.534V18.363H121.183V19.714H119.832V21.0649H121.183V22.4158H122.534V27.7945H119.832V23.7417H118.481V22.4158H117.13V21.0649H111.777V27.7945H109.075V10.2824Z" fill="#8D8D8D"/>
<path d="M129.371 10.2824H142.805V12.9843H137.451V27.7945H134.75V12.9843H129.371V10.2824Z" fill="#8D8D8D"/>
<path d="M144.156 18.363V21.0649H149.535V18.363H148.184V14.3352H145.507V18.363H144.156ZM141.454 25.0927V27.7945H138.752V23.7417H140.103V21.0649H141.454V18.363H142.805V14.3352H144.156V11.6334H145.507V10.2824H148.209V11.6334H149.535V14.3352H150.886V18.363H152.237V21.0649H153.588V23.7417H154.939V27.7945H152.237V25.0927H150.886V23.7668H142.805V25.0927H141.454Z" fill="#8D8D8D"/>
<path d="M158.996 12.9843V18.363H164.374V17.0121H165.725V14.3352H164.374V12.9843H158.996ZM156.294 10.2824H165.725V11.6334H167.076V12.9843H168.427V18.363H167.076V19.714H165.725V21.0649H158.996V27.7945H156.294V10.2824Z" fill="#8D8D8D"/>
</g>
<defs>
<clipPath id="clip0_775_12914">
<rect width="188" height="63" fill="white"/>
</clipPath>
</defs>
</svg>
