<svg width="184" height="44" viewBox="0 0 184 44" fill="none" xmlns="http://www.w3.org/2000/svg">
<path d="M92.5 0L95.0572 10.2681L102.064 0.120518L100.144 10.3966L111.524 0.480753L105.146 10.6523L120.775 1.07676L110.01 11.0323L129.716 1.902L114.682 11.5325L138.25 2.94744L119.112 12.1473L146.282 4.20163L123.249 12.8701L153.725 5.65081L127.05 13.6929L160.498 7.27913L130.472 14.6067L166.525 9.06872L133.478 15.6016L171.741 11L136.035 16.6665L176.089 13.0518L138.116 17.7899L179.522 15.2016L139.696 18.9594L182.001 17.4259L140.759 20.1622L183.499 19.7004L141.294 21.3852L184 22L141.294 22.6148L183.499 24.2996L140.759 23.8378L182.001 26.5741L139.696 25.0406L179.522 28.7984L138.116 26.2101L176.089 30.9482L136.035 27.3335L171.741 33L133.478 28.3984L166.525 34.9313L130.472 29.3933L160.498 36.7209L127.05 30.3071L153.725 38.3492L123.249 31.1299L146.282 39.7984L119.112 31.8527L138.25 41.0526L114.682 32.4675L129.716 42.098L110.01 32.9677L120.775 42.9232L105.146 33.3477L111.524 43.5192L100.144 33.6034L102.064 43.8795L95.0572 33.7319L92.5 44L89.9428 33.7319L82.9356 43.8795L84.8565 33.6034L73.4761 43.5192L79.8538 33.3477L64.2249 42.9232L74.9898 32.9677L55.2836 42.098L70.3176 32.4675L46.75 41.0526L65.8884 31.8527L38.7176 39.7984L61.7508 31.1299L31.2746 38.3492L57.9501 30.3071L24.5023 36.7209L54.5279 29.3933L18.4749 34.9313L51.5217 28.3984L13.2587 33L48.9645 27.3335L8.91059 30.9482L46.8843 26.2101L5.47833 28.7984L45.3039 25.0406L2.9995 26.5741L44.2406 23.8378L1.50124 24.2996L43.706 22.6148L1 22L43.706 21.3852L1.50124 19.7004L44.2406 20.1622L2.9995 17.4259L45.3039 18.9594L5.47833 15.2016L46.8843 17.7899L8.91059 13.0518L48.9645 16.6665L13.2587 11L51.5217 15.6016L18.4749 9.06872L54.5279 14.6067L24.5023 7.27913L57.9501 13.6929L31.2746 5.65081L61.7508 12.8701L38.7176 4.20163L65.8884 12.1473L46.75 2.94744L70.3176 11.5325L55.2836 1.902L74.9898 11.0323L64.2249 1.07676L79.8538 10.6523L73.4761 0.480753L84.8565 10.3966L82.9356 0.120518L89.9428 10.2681L92.5 0Z" fill="#8D8D8D"/>
<path d="M54.8 18.528V20.976H57.528V18.528H58.968V25H57.528V22.272H54.8V25H53.368V18.528H54.8ZM62.5756 18.392C64.3436 18.392 65.6636 19.64 65.6636 21.76C65.6636 23.976 64.2636 25.12 62.5756 25.12C60.8876 25.12 59.4956 23.968 59.4956 21.76C59.4956 19.6 60.8876 18.392 62.5756 18.392ZM62.5756 23.784C63.5436 23.784 64.2636 23.152 64.2636 21.76C64.2636 20.376 63.5356 19.736 62.5756 19.736C61.6236 19.736 60.8876 20.376 60.8876 21.76C60.8876 23.152 61.6156 23.784 62.5756 23.784ZM66.1805 18.528H68.8765C70.0685 18.528 70.9005 19.48 70.9005 20.424C70.9005 21.224 70.3565 21.776 70.1405 21.776C70.7485 21.776 71.3725 22.432 71.3725 23.264C71.3725 24.144 70.6845 25 69.4925 25H66.1805V18.528ZM67.6125 19.784V21.136H68.9965C69.3645 21.136 69.6605 20.824 69.6605 20.464C69.6605 20.104 69.3485 19.784 69.0045 19.784H67.6125ZM69.4045 23.744C69.7725 23.744 70.0685 23.448 70.0685 23.08C70.0685 22.704 69.7645 22.392 69.3885 22.392H67.6125V23.744H69.4045ZM77.7802 18.528H79.2122V25H77.7802V18.528ZM74.5402 21.136C76.4762 21.136 77.1162 22.016 77.1162 23.104C77.1162 24.784 75.5802 25 74.2202 25H71.8602V18.528H73.2922V21.136H74.5402ZM75.7642 23.08V22.904C75.7642 22.48 75.3482 22.136 74.7082 22.136H73.3162V23.848H74.7082C75.3482 23.848 75.7642 23.504 75.7642 23.08ZM84.4499 18.528H85.8099V25H84.4499V20.736L81.3139 25H79.9539V18.528H81.3139V22.76L84.4499 18.528ZM82.8819 18.4C82.1139 18.4 81.4419 17.848 81.4419 16.984L81.4339 16.952H82.2499V16.984C82.2499 17.392 82.5699 17.608 82.8819 17.608C83.1939 17.608 83.5139 17.392 83.5139 16.984V16.952H84.3219V16.984C84.3219 17.848 83.6499 18.4 82.8819 18.4ZM93.7533 22.392H95.2173C94.9693 24.2 93.6893 25.12 92.1693 25.12C90.4813 25.12 89.0893 23.968 89.0893 21.76C89.0893 19.6 90.4813 18.392 92.1693 18.392C93.6973 18.392 94.8813 19.328 95.1853 20.936H93.6893C93.5213 20.128 92.9133 19.736 92.1693 19.736C91.2173 19.736 90.4813 20.376 90.4813 21.76C90.4813 23.152 91.2093 23.784 92.1693 23.784C92.9773 23.784 93.6493 23.336 93.7533 22.392ZM95.4403 18.528H101.384V19.824H99.1283V25H97.6963V19.824H95.4403V18.528ZM105.509 25L105.005 23.664H102.621L102.117 25H100.756L103.133 18.528H104.637L106.869 25H105.509ZM103.069 22.472H104.557L103.813 20.504L103.069 22.472ZM110.18 18.528C111.58 18.528 112.308 19.6 112.308 20.616C112.308 21.952 111.3 22.68 110.236 22.68H108.62V25H107.188V18.528H108.14H110.18ZM110.148 21.424C110.668 21.424 111.052 21.112 111.052 20.616C111.052 20.12 110.644 19.784 110.148 19.784H108.62V21.424H110.148ZM112.495 18.528H118.439V19.824H116.183V25H114.751V19.824H112.495V18.528ZM122.563 25L122.059 23.664H119.675L119.171 25H117.811L120.187 18.528H121.691L123.923 25H122.563ZM120.123 22.472H121.611L120.867 20.504L120.123 22.472ZM124.243 18.528H129.707V25H128.267V19.824H125.675V25H124.243V18.528Z" fill="#131314"/>
</svg>
