<svg width="184" height="44" viewBox="0 0 184 44" fill="none" xmlns="http://www.w3.org/2000/svg">
<path d="M92.5 0L99.6569 11.1354L120.775 1.07676L113.27 12.1989L146.282 4.20163L124.85 14.2218L166.525 9.06872L133.264 17.0061L179.522 15.2016L137.687 20.2792L184 22L137.687 23.7208L179.522 28.7984L133.264 26.9939L166.525 34.9313L124.85 29.7782L146.282 39.7984L113.27 31.8011L120.775 42.9232L99.6569 32.8646L92.5 44L85.3431 32.8646L64.2249 42.9232L71.7299 31.8011L38.7176 39.7984L60.1499 29.7782L18.4749 34.9313L51.7365 26.9939L5.47833 28.7984L47.3133 23.7208L1 22L47.3133 20.2792L5.47833 15.2016L51.7365 17.0061L18.4749 9.06872L60.1499 14.2218L38.7176 4.20163L71.7299 12.1989L64.2249 1.07676L85.3431 11.1354L92.5 0Z" fill="#8D8D8D"/>
<path d="M62.8 18.528V20.976H65.528V18.528H66.968V25H65.528V22.272H62.8V25H61.368V18.528H62.8ZM70.5756 18.392C72.3436 18.392 73.6636 19.64 73.6636 21.76C73.6636 23.976 72.2636 25.12 70.5756 25.12C68.8876 25.12 67.4956 23.968 67.4956 21.76C67.4956 19.6 68.8876 18.392 70.5756 18.392ZM70.5756 23.784C71.5436 23.784 72.2636 23.152 72.2636 21.76C72.2636 20.376 71.5356 19.736 70.5756 19.736C69.6236 19.736 68.8876 20.376 68.8876 21.76C68.8876 23.152 69.6156 23.784 70.5756 23.784ZM74.1805 18.528H76.8765C78.0685 18.528 78.9005 19.48 78.9005 20.424C78.9005 21.224 78.3565 21.776 78.1405 21.776C78.7485 21.776 79.3725 22.432 79.3725 23.264C79.3725 24.144 78.6845 25 77.4925 25H74.1805V18.528ZM75.6125 19.784V21.136H76.9965C77.3645 21.136 77.6605 20.824 77.6605 20.464C77.6605 20.104 77.3485 19.784 77.0045 19.784H75.6125ZM77.4045 23.744C77.7725 23.744 78.0685 23.448 78.0685 23.08C78.0685 22.704 77.7645 22.392 77.3885 22.392H75.6125V23.744H77.4045ZM85.7802 18.528H87.2122V25H85.7802V18.528ZM82.5402 21.136C84.4762 21.136 85.1162 22.016 85.1162 23.104C85.1162 24.784 83.5802 25 82.2202 25H79.8602V18.528H81.2922V21.136H82.5402ZM83.7642 23.08V22.904C83.7642 22.48 83.3482 22.136 82.7082 22.136H81.3162V23.848H82.7082C83.3482 23.848 83.7642 23.504 83.7642 23.08ZM92.4499 18.528H93.8099V25H92.4499V20.736L89.3139 25H87.9539V18.528H89.3139V22.76L92.4499 18.528ZM90.8819 18.4C90.1139 18.4 89.4419 17.848 89.4419 16.984L89.4339 16.952H90.2499V16.984C90.2499 17.392 90.5699 17.608 90.8819 17.608C91.1939 17.608 91.5139 17.392 91.5139 16.984V16.952H92.3219V16.984C92.3219 17.848 91.6499 18.4 90.8819 18.4ZM97.3133 18.528H102.777V25H101.337V19.824H98.7453V25H97.3133V18.528ZM106.38 18.392C108.148 18.392 109.468 19.64 109.468 21.76C109.468 23.976 108.068 25.12 106.38 25.12C104.692 25.12 103.3 23.968 103.3 21.76C103.3 19.6 104.692 18.392 106.38 18.392ZM106.38 23.784C107.348 23.784 108.068 23.152 108.068 21.76C108.068 20.376 107.34 19.736 106.38 19.736C105.428 19.736 104.692 20.376 104.692 21.76C104.692 23.152 105.42 23.784 106.38 23.784ZM114.425 22.392H115.889C115.641 24.2 114.361 25.12 112.841 25.12C111.153 25.12 109.761 23.968 109.761 21.76C109.761 19.6 111.153 18.392 112.841 18.392C114.369 18.392 115.553 19.328 115.857 20.936H114.361C114.193 20.128 113.585 19.736 112.841 19.736C111.889 19.736 111.153 20.376 111.153 21.76C111.153 23.152 111.881 23.784 112.841 23.784C113.649 23.784 114.321 23.336 114.425 22.392ZM116.112 18.528H122.056V19.824H119.8V25H118.368V19.824H116.112V18.528Z" fill="#131314"/>
</svg>
