<svg width="652" height="522" viewBox="0 0 652 522" fill="none" xmlns="http://www.w3.org/2000/svg">
<path d="M61.2692 64.2775C65.5027 38.043 91.6972 21.3935 117.248 28.6968L300.028 80.9426C315.349 85.3217 331.841 81.1467 343.232 70.0054L346.521 66.789C356.602 56.9287 370.772 52.45 384.689 54.7247L605.267 90.7762C629.448 94.7283 645.844 117.538 641.884 141.718L587.674 472.782C583.716 496.951 560.918 513.339 536.747 509.388L294.009 469.715L47.2096 430.564C22.9699 426.719 6.46047 403.92 10.3704 379.691L61.2692 64.2775Z" fill="#F2F2F2"/>
<path d="M141.18 272.974C123.108 272.974 110.146 264.25 107.529 249.419H121.862C123.98 257.021 129.589 260.511 141.429 260.511C150.527 260.511 156.136 257.769 156.136 252.659C156.136 246.926 149.655 246.053 138.189 243.311C118.995 238.575 110.894 234.712 110.894 223.245C110.894 209.411 122.609 201.434 139.809 201.434C157.382 201.434 167.228 209.785 169.721 222.248H155.513C153.519 216.64 148.284 213.898 139.56 213.898C130.461 213.898 125.102 217.014 125.102 221.75C125.102 226.112 129.34 227.234 141.304 230.1C159.875 234.462 170.593 237.703 170.593 251.039C170.593 265.746 157.382 272.974 141.18 272.974ZM233.282 256.523L235.775 267.989C232.036 270.232 224.06 272.974 216.208 272.974C202.124 272.974 191.156 264.125 191.156 245.181V216.141H178.443V202.93H191.156V187.351L205.24 184.235V202.93H233.407V216.141H205.24V244.433C205.24 254.404 209.851 259.888 218.7 259.888C223.062 259.888 227.923 258.392 233.282 256.523ZM298.73 202.93H312.813V271.479H298.73V260.012C293.744 267.864 285.519 272.974 274.8 272.974C256.479 272.974 243.143 258.143 243.143 237.204C243.143 216.266 256.728 201.434 274.675 201.434C285.519 201.434 293.744 206.794 298.73 214.646V202.93ZM277.791 259.514C289.756 259.514 298.854 250.416 298.854 237.204C298.854 224.118 289.756 214.895 277.791 214.895C265.826 214.895 257.351 224.118 257.351 237.204C257.351 250.416 265.951 259.514 277.791 259.514ZM366.138 201.434C367.883 201.434 369.254 201.559 370.251 201.808V216.141C369.005 216.017 367.883 215.892 366.014 215.892C353.176 215.892 343.33 223.121 343.33 240.071V271.479H329.247V202.93H343.33V216.515C347.443 206.918 355.295 201.434 366.138 201.434Z" fill="#1F2026"/>
<path d="M372.42 355.73L374.912 367.196C371.173 369.44 363.197 372.182 355.345 372.182C341.261 372.182 330.293 363.333 330.293 344.388V315.349H317.581V302.137H330.293V286.558L344.377 283.442V302.137H372.544V315.349H344.377V343.641C344.377 353.611 348.989 359.095 357.838 359.095C362.2 359.095 367.06 357.6 372.42 355.73ZM437.867 302.137H451.951V370.686H437.867V359.22C432.882 367.072 424.656 372.182 413.937 372.182C395.616 372.182 382.28 357.35 382.28 336.412C382.28 315.473 395.866 300.642 413.813 300.642C424.656 300.642 432.882 306.001 437.867 313.853V302.137ZM416.929 358.721C428.894 358.721 437.992 349.623 437.992 336.412C437.992 323.325 428.894 314.102 416.929 314.102C404.964 314.102 396.489 323.325 396.489 336.412C396.489 349.623 405.088 358.721 416.929 358.721ZM507.145 300.642C525.092 300.642 538.678 315.473 538.678 336.412C538.678 357.35 525.342 372.182 507.021 372.182C496.302 372.182 488.076 366.947 483.091 359.22V401.845H469.007V302.137H483.091V313.853C488.076 306.001 496.302 300.642 507.145 300.642ZM504.029 358.721C515.87 358.721 524.469 349.623 524.469 336.412C524.469 323.325 515.994 314.102 504.029 314.102C492.064 314.102 482.966 323.325 482.966 336.412C482.966 349.623 492.064 358.721 504.029 358.721Z" fill="#1F2026"/>
<path d="M408.171 150.519C409.737 145.703 416.551 145.703 418.116 150.519L425.175 172.245C425.875 174.399 427.882 175.857 430.147 175.857L452.99 175.857C458.055 175.857 460.161 182.338 456.063 185.315L437.583 198.742C435.75 200.073 434.984 202.433 435.683 204.587L442.742 226.312C444.307 231.129 438.795 235.134 434.697 232.158L416.217 218.731C414.384 217.399 411.903 217.399 410.071 218.731L391.59 232.158C387.493 235.134 381.98 231.129 383.545 226.312L390.604 204.587C391.304 202.433 390.537 200.073 388.705 198.742L370.224 185.315C366.127 182.338 368.232 175.857 373.297 175.857L396.14 175.857C398.405 175.857 400.413 174.399 401.112 172.245L408.171 150.519Z" fill="#3A66FF"/>
</svg>
