<svg width="20" height="20" viewBox="0 0 20 20" fill="none" xmlns="http://www.w3.org/2000/svg">
<path d="M2.5 9.67564C2.5 13.6381 5.8585 16.8505 10 16.8505C10.4885 16.851 10.9723 16.8065 11.4513 16.717C11.7955 16.6518 11.9672 16.6195 12.0872 16.6383C12.2072 16.6563 12.3783 16.747 12.7188 16.9278C13.689 17.4445 14.8054 17.6182 15.8867 17.4206C15.4737 16.9099 15.1936 16.3048 15.0715 15.6595C14.9965 15.2619 15.1825 14.8757 15.4615 14.5929C16.7245 13.3088 17.5 11.5792 17.5 9.67564C17.5 5.71317 14.1415 2.5 10 2.5C5.8585 2.5 2.5 5.71317 2.5 9.67564Z" stroke="#B9B9B9" stroke-linecap="round" stroke-linejoin="round"/>
</svg>
