<svg width="24" height="24" viewBox="0 0 24 24" fill="none" xmlns="http://www.w3.org/2000/svg">
<path d="M3 11.6108C3 16.3657 7.0302 20.2206 12 20.2206C12.5862 20.2212 13.1667 20.1678 13.7415 20.0604C14.1546 19.9821 14.3607 19.9434 14.5047 19.9659C14.6487 19.9875 14.8539 20.0964 15.2625 20.3133C16.4268 20.9334 17.7665 21.1418 19.0641 20.9047C18.5684 20.2919 18.2323 19.5658 18.0858 18.7914C17.9958 18.3143 18.219 17.8508 18.5538 17.5115C20.0694 15.9706 21 13.8951 21 11.6108C21 6.85581 16.9698 3 12 3C7.0302 3 3 6.85581 3 11.6108Z" stroke="#02020F" stroke-width="1.5" stroke-linecap="round" stroke-linejoin="round"/>
</svg>
