<svg width="21" height="20" viewBox="0 0 21 20" fill="none" xmlns="http://www.w3.org/2000/svg">
<path d="M17.8963 2.60418C17.6475 2.35506 17.352 2.15743 17.0267 2.0226C16.7014 1.88776 16.3528 1.81836 16.0007 1.81836C15.6485 1.81836 15.2999 1.88776 14.9746 2.0226C14.6493 2.15743 14.3538 2.35506 14.105 2.60418L4.02437 12.6853C3.72439 12.9853 3.50623 13.3575 3.39169 13.7665L2.337 17.5332C2.31263 17.6206 2.31191 17.7128 2.33492 17.8005C2.35793 17.8881 2.40384 17.9681 2.46794 18.0322C2.53204 18.0963 2.61203 18.1422 2.69972 18.1653C2.78741 18.1883 2.87963 18.1875 2.96695 18.1632L6.73304 17.1085C7.14237 16.9948 7.51518 16.7768 7.81501 16.4758L17.8963 6.39473C18.1453 6.14591 18.3429 5.85045 18.4777 5.52525C18.6124 5.20005 18.6818 4.85148 18.6818 4.49945C18.6818 4.14743 18.6124 3.79886 18.4777 3.47366C18.3429 3.14846 18.1453 2.853 17.8963 2.60418ZM14.8284 3.32684C15.1394 3.01593 15.5611 2.8413 16.0009 2.84136C16.4407 2.84143 16.8624 3.01618 17.1733 3.32718C17.4842 3.63818 17.6589 4.05994 17.6588 4.4997C17.6587 4.93945 17.484 5.36117 17.173 5.67207L16.123 6.72129L13.7784 4.37606L14.8284 3.32684ZM13.0558 5.0994L15.401 7.44463L7.09165 15.7532C6.91615 15.9298 6.69761 16.0577 6.4576 16.124L3.56622 16.9333L4.37548 14.0427C4.44273 13.803 4.57045 13.5847 4.74637 13.4086L13.0558 5.0994Z" fill="#444444"/>
</svg>
