<svg width="24" height="24" viewBox="0 0 24 24" fill="none" xmlns="http://www.w3.org/2000/svg">
<g clip-path="url(#clip0_674_23877)">
<path d="M18 7C18.774 7.16 19.359 7.429 19.828 7.876C21 8.992 21 10.788 21 14.38C21 17.972 21 19.768 19.828 20.884C18.656 22 16.771 22 13 22H11C7.229 22 5.343 22 4.172 20.884C3.001 19.768 3 17.972 3 14.38C3 10.788 3 8.992 4.172 7.876C4.642 7.429 5.226 7.16 6 7M12.025 2L12 14M12.025 2C11.8514 1.99778 11.6832 2.06015 11.553 2.175C10.647 2.94 9 4.929 9 4.929M12.025 2C12.1812 2.00921 12.3297 2.07047 12.447 2.174C13.353 2.94 15 4.93 15 4.93" stroke="#02020F" stroke-width="1.5" stroke-linecap="round" stroke-linejoin="round"/>
</g>
<defs>
<clipPath id="clip0_674_23877">
<rect width="24" height="24" rx="4" fill="white"/>
</clipPath>
</defs>
</svg>
