<svg width="20" height="20" viewBox="0 0 20 20" fill="none" xmlns="http://www.w3.org/2000/svg">
<g clip-path="url(#clip0_265_2985)">
<path d="M15 5.83371C15.645 5.96704 16.1325 6.19121 16.5233 6.56371C17.5 7.49371 17.5 8.99037 17.5 11.9837C17.5 14.977 17.5 16.4737 16.5233 17.4037C15.5467 18.3337 13.9758 18.3337 10.8333 18.3337H9.16667C6.02417 18.3337 4.4525 18.3337 3.47667 17.4037C2.50083 16.4737 2.5 14.977 2.5 11.9837C2.5 8.99037 2.5 7.49371 3.47667 6.56371C3.86833 6.19121 4.355 5.96704 5 5.83371M10.0208 1.66704L10 11.667M10.0208 1.66704C9.87617 1.66519 9.73599 1.71717 9.6275 1.81287C8.8725 2.45037 7.5 4.10787 7.5 4.10787M10.0208 1.66704C10.151 1.67472 10.2748 1.72577 10.3725 1.81204C11.1275 2.45037 12.5 4.10871 12.5 4.10871" stroke="#B9B9B9" stroke-linecap="round" stroke-linejoin="round"/>
</g>
<defs>
<clipPath id="clip0_265_2985">
<rect width="20" height="20" rx="3.33333" fill="white"/>
</clipPath>
</defs>
</svg>
